<mxfile host="app.diagrams.net" modified="2023-11-20T19:40:20.279Z" agent="Mozilla/5.0 (Windows NT 10.0; Win64; x64) AppleWebKit/537.36 (KHTML, like Gecko) Chrome/119.0.0.0 Safari/537.36" etag="AVwHUt2u_eCd98jeafQ9" version="22.1.3" type="github" pages="5">
  <diagram id="C5RBs43oDa-KdzZeNtuy" name="Page-1">
    <mxGraphModel dx="1050" dy="557" grid="1" gridSize="10" guides="1" tooltips="1" connect="1" arrows="1" fold="1" page="1" pageScale="1" pageWidth="827" pageHeight="1169" math="0" shadow="0">
      <root>
        <mxCell id="WIyWlLk6GJQsqaUBKTNV-0" />
        <mxCell id="WIyWlLk6GJQsqaUBKTNV-1" parent="WIyWlLk6GJQsqaUBKTNV-0" />
        <mxCell id="WIyWlLk6GJQsqaUBKTNV-2" value="" style="rounded=0;html=1;jettySize=auto;orthogonalLoop=1;fontSize=11;endArrow=block;endFill=0;endSize=8;strokeWidth=1;shadow=0;labelBackgroundColor=none;edgeStyle=orthogonalEdgeStyle;" parent="WIyWlLk6GJQsqaUBKTNV-1" source="WIyWlLk6GJQsqaUBKTNV-3" target="WIyWlLk6GJQsqaUBKTNV-6" edge="1">
          <mxGeometry relative="1" as="geometry" />
        </mxCell>
        <mxCell id="WIyWlLk6GJQsqaUBKTNV-3" value="Lamp doesn&#39;t work" style="rounded=1;whiteSpace=wrap;html=1;fontSize=12;glass=0;strokeWidth=1;shadow=0;" parent="WIyWlLk6GJQsqaUBKTNV-1" vertex="1">
          <mxGeometry x="160" y="80" width="120" height="40" as="geometry" />
        </mxCell>
        <mxCell id="WIyWlLk6GJQsqaUBKTNV-4" value="Yes" style="rounded=0;html=1;jettySize=auto;orthogonalLoop=1;fontSize=11;endArrow=block;endFill=0;endSize=8;strokeWidth=1;shadow=0;labelBackgroundColor=none;edgeStyle=orthogonalEdgeStyle;" parent="WIyWlLk6GJQsqaUBKTNV-1" source="WIyWlLk6GJQsqaUBKTNV-6" target="WIyWlLk6GJQsqaUBKTNV-10" edge="1">
          <mxGeometry y="20" relative="1" as="geometry">
            <mxPoint as="offset" />
          </mxGeometry>
        </mxCell>
        <mxCell id="WIyWlLk6GJQsqaUBKTNV-5" value="No" style="edgeStyle=orthogonalEdgeStyle;rounded=0;html=1;jettySize=auto;orthogonalLoop=1;fontSize=11;endArrow=block;endFill=0;endSize=8;strokeWidth=1;shadow=0;labelBackgroundColor=none;" parent="WIyWlLk6GJQsqaUBKTNV-1" source="WIyWlLk6GJQsqaUBKTNV-6" target="WIyWlLk6GJQsqaUBKTNV-7" edge="1">
          <mxGeometry y="10" relative="1" as="geometry">
            <mxPoint as="offset" />
          </mxGeometry>
        </mxCell>
        <mxCell id="WIyWlLk6GJQsqaUBKTNV-6" value="Lamp&lt;br&gt;plugged in?" style="rhombus;whiteSpace=wrap;html=1;shadow=0;fontFamily=Helvetica;fontSize=12;align=center;strokeWidth=1;spacing=6;spacingTop=-4;" parent="WIyWlLk6GJQsqaUBKTNV-1" vertex="1">
          <mxGeometry x="170" y="170" width="100" height="80" as="geometry" />
        </mxCell>
        <mxCell id="WIyWlLk6GJQsqaUBKTNV-7" value="Plug in lamp" style="rounded=1;whiteSpace=wrap;html=1;fontSize=12;glass=0;strokeWidth=1;shadow=0;" parent="WIyWlLk6GJQsqaUBKTNV-1" vertex="1">
          <mxGeometry x="320" y="190" width="120" height="40" as="geometry" />
        </mxCell>
        <mxCell id="WIyWlLk6GJQsqaUBKTNV-8" value="No" style="rounded=0;html=1;jettySize=auto;orthogonalLoop=1;fontSize=11;endArrow=block;endFill=0;endSize=8;strokeWidth=1;shadow=0;labelBackgroundColor=none;edgeStyle=orthogonalEdgeStyle;" parent="WIyWlLk6GJQsqaUBKTNV-1" source="WIyWlLk6GJQsqaUBKTNV-10" target="WIyWlLk6GJQsqaUBKTNV-11" edge="1">
          <mxGeometry x="0.3333" y="20" relative="1" as="geometry">
            <mxPoint as="offset" />
          </mxGeometry>
        </mxCell>
        <mxCell id="WIyWlLk6GJQsqaUBKTNV-9" value="Yes" style="edgeStyle=orthogonalEdgeStyle;rounded=0;html=1;jettySize=auto;orthogonalLoop=1;fontSize=11;endArrow=block;endFill=0;endSize=8;strokeWidth=1;shadow=0;labelBackgroundColor=none;" parent="WIyWlLk6GJQsqaUBKTNV-1" source="WIyWlLk6GJQsqaUBKTNV-10" target="WIyWlLk6GJQsqaUBKTNV-12" edge="1">
          <mxGeometry y="10" relative="1" as="geometry">
            <mxPoint as="offset" />
          </mxGeometry>
        </mxCell>
        <mxCell id="WIyWlLk6GJQsqaUBKTNV-10" value="Bulb&lt;br&gt;burned out?" style="rhombus;whiteSpace=wrap;html=1;shadow=0;fontFamily=Helvetica;fontSize=12;align=center;strokeWidth=1;spacing=6;spacingTop=-4;" parent="WIyWlLk6GJQsqaUBKTNV-1" vertex="1">
          <mxGeometry x="170" y="290" width="100" height="80" as="geometry" />
        </mxCell>
        <mxCell id="WIyWlLk6GJQsqaUBKTNV-11" value="Repair Lamp" style="rounded=1;whiteSpace=wrap;html=1;fontSize=12;glass=0;strokeWidth=1;shadow=0;" parent="WIyWlLk6GJQsqaUBKTNV-1" vertex="1">
          <mxGeometry x="160" y="430" width="120" height="40" as="geometry" />
        </mxCell>
        <mxCell id="WIyWlLk6GJQsqaUBKTNV-12" value="Replace Bulb" style="rounded=1;whiteSpace=wrap;html=1;fontSize=12;glass=0;strokeWidth=1;shadow=0;" parent="WIyWlLk6GJQsqaUBKTNV-1" vertex="1">
          <mxGeometry x="320" y="310" width="120" height="40" as="geometry" />
        </mxCell>
      </root>
    </mxGraphModel>
  </diagram>
  <diagram id="9Y4TnTe6Kb-gc7pp-5wc" name="‫עמוד-2‬">
    <mxGraphModel dx="1050" dy="1726" grid="1" gridSize="10" guides="1" tooltips="1" connect="1" arrows="1" fold="1" page="1" pageScale="1" pageWidth="827" pageHeight="1169" math="0" shadow="0">
      <root>
        <mxCell id="0" />
        <mxCell id="1" parent="0" />
        <mxCell id="d9XS0nCmpCl8ZpBPNMsg-1" value="&lt;font style=&quot;font-size: 25px;&quot;&gt;start&lt;/font&gt;" style="rounded=1;whiteSpace=wrap;html=1;" vertex="1" parent="1">
          <mxGeometry x="210" y="-1150" width="120" height="60" as="geometry" />
        </mxCell>
        <mxCell id="d9XS0nCmpCl8ZpBPNMsg-3" value="" style="endArrow=classic;html=1;rounded=0;" edge="1" parent="1">
          <mxGeometry width="50" height="50" relative="1" as="geometry">
            <mxPoint x="269.5" y="-1090" as="sourcePoint" />
            <mxPoint x="270" y="-1060" as="targetPoint" />
          </mxGeometry>
        </mxCell>
        <mxCell id="d9XS0nCmpCl8ZpBPNMsg-16" style="edgeStyle=orthogonalEdgeStyle;rounded=0;orthogonalLoop=1;jettySize=auto;html=1;exitX=0.5;exitY=1;exitDx=0;exitDy=0;" edge="1" parent="1" source="d9XS0nCmpCl8ZpBPNMsg-7" target="d9XS0nCmpCl8ZpBPNMsg-17">
          <mxGeometry relative="1" as="geometry">
            <mxPoint x="270" y="-940" as="targetPoint" />
          </mxGeometry>
        </mxCell>
        <mxCell id="d9XS0nCmpCl8ZpBPNMsg-7" value="is the TV on" style="rhombus;whiteSpace=wrap;html=1;" vertex="1" parent="1">
          <mxGeometry x="215" y="-1060" width="110" height="80" as="geometry" />
        </mxCell>
        <mxCell id="d9XS0nCmpCl8ZpBPNMsg-8" value="" style="endArrow=classic;html=1;rounded=0;" edge="1" parent="1" target="d9XS0nCmpCl8ZpBPNMsg-1">
          <mxGeometry width="50" height="50" relative="1" as="geometry">
            <mxPoint x="270" y="-1100" as="sourcePoint" />
            <mxPoint x="320" y="-1150" as="targetPoint" />
          </mxGeometry>
        </mxCell>
        <mxCell id="d9XS0nCmpCl8ZpBPNMsg-12" value="" style="endArrow=classic;html=1;rounded=0;exitX=1;exitY=0.5;exitDx=0;exitDy=0;entryX=0;entryY=0.5;entryDx=0;entryDy=0;" edge="1" parent="1" source="d9XS0nCmpCl8ZpBPNMsg-7" target="d9XS0nCmpCl8ZpBPNMsg-15">
          <mxGeometry width="50" height="50" relative="1" as="geometry">
            <mxPoint x="350" y="-1020" as="sourcePoint" />
            <mxPoint x="380" y="-1020" as="targetPoint" />
          </mxGeometry>
        </mxCell>
        <mxCell id="d9XS0nCmpCl8ZpBPNMsg-14" value="" style="endArrow=classic;html=1;rounded=0;exitX=0.545;exitY=1;exitDx=0;exitDy=0;exitPerimeter=0;" edge="1" parent="1">
          <mxGeometry width="50" height="50" relative="1" as="geometry">
            <mxPoint x="480.00000000000006" y="-995" as="sourcePoint" />
            <mxPoint x="480" y="-640" as="targetPoint" />
          </mxGeometry>
        </mxCell>
        <mxCell id="d9XS0nCmpCl8ZpBPNMsg-15" value="Trun it on" style="rounded=0;whiteSpace=wrap;html=1;" vertex="1" parent="1">
          <mxGeometry x="440" y="-1045" width="90" height="50" as="geometry" />
        </mxCell>
        <mxCell id="d9XS0nCmpCl8ZpBPNMsg-20" style="edgeStyle=orthogonalEdgeStyle;rounded=0;orthogonalLoop=1;jettySize=auto;html=1;exitX=0.5;exitY=1;exitDx=0;exitDy=0;" edge="1" parent="1" source="d9XS0nCmpCl8ZpBPNMsg-17">
          <mxGeometry relative="1" as="geometry">
            <mxPoint x="270" y="-810" as="targetPoint" />
          </mxGeometry>
        </mxCell>
        <mxCell id="d9XS0nCmpCl8ZpBPNMsg-42" style="edgeStyle=orthogonalEdgeStyle;rounded=0;orthogonalLoop=1;jettySize=auto;html=1;exitX=1;exitY=0.5;exitDx=0;exitDy=0;" edge="1" parent="1" source="d9XS0nCmpCl8ZpBPNMsg-17">
          <mxGeometry relative="1" as="geometry">
            <mxPoint x="340" y="-885" as="targetPoint" />
          </mxGeometry>
        </mxCell>
        <mxCell id="d9XS0nCmpCl8ZpBPNMsg-17" value="Is the light on in the room" style="rhombus;whiteSpace=wrap;html=1;fontSize=10;" vertex="1" parent="1">
          <mxGeometry x="230" y="-920" width="80" height="70" as="geometry" />
        </mxCell>
        <mxCell id="d9XS0nCmpCl8ZpBPNMsg-37" style="edgeStyle=orthogonalEdgeStyle;rounded=0;orthogonalLoop=1;jettySize=auto;html=1;exitX=0.5;exitY=1;exitDx=0;exitDy=0;" edge="1" parent="1" source="d9XS0nCmpCl8ZpBPNMsg-24">
          <mxGeometry relative="1" as="geometry">
            <mxPoint x="392" y="-670" as="targetPoint" />
          </mxGeometry>
        </mxCell>
        <mxCell id="d9XS0nCmpCl8ZpBPNMsg-24" value="call electrician" style="rounded=0;whiteSpace=wrap;html=1;" vertex="1" parent="1">
          <mxGeometry x="344" y="-901.25" width="96" height="41.25" as="geometry" />
        </mxCell>
        <mxCell id="d9XS0nCmpCl8ZpBPNMsg-30" style="edgeStyle=orthogonalEdgeStyle;rounded=0;orthogonalLoop=1;jettySize=auto;html=1;exitX=0.5;exitY=1;exitDx=0;exitDy=0;" edge="1" parent="1" target="d9XS0nCmpCl8ZpBPNMsg-31">
          <mxGeometry relative="1" as="geometry">
            <mxPoint x="270" y="-720" as="targetPoint" />
            <mxPoint x="270" y="-760" as="sourcePoint" />
          </mxGeometry>
        </mxCell>
        <mxCell id="d9XS0nCmpCl8ZpBPNMsg-31" value="Stop" style="rounded=0;whiteSpace=wrap;html=1;fontSize=15;" vertex="1" parent="1">
          <mxGeometry x="210" y="-690" width="120" height="60" as="geometry" />
        </mxCell>
        <mxCell id="d9XS0nCmpCl8ZpBPNMsg-34" value="" style="endArrow=classic;html=1;rounded=0;entryX=1;entryY=0.25;entryDx=0;entryDy=0;" edge="1" parent="1" target="d9XS0nCmpCl8ZpBPNMsg-31">
          <mxGeometry width="50" height="50" relative="1" as="geometry">
            <mxPoint x="390" y="-675" as="sourcePoint" />
            <mxPoint x="320" y="-860" as="targetPoint" />
          </mxGeometry>
        </mxCell>
        <mxCell id="d9XS0nCmpCl8ZpBPNMsg-35" value="" style="endArrow=classic;html=1;rounded=0;entryX=1;entryY=0.75;entryDx=0;entryDy=0;" edge="1" parent="1" target="d9XS0nCmpCl8ZpBPNMsg-31">
          <mxGeometry width="50" height="50" relative="1" as="geometry">
            <mxPoint x="480" y="-645" as="sourcePoint" />
            <mxPoint x="320" y="-860" as="targetPoint" />
          </mxGeometry>
        </mxCell>
        <mxCell id="d9XS0nCmpCl8ZpBPNMsg-38" value="We will order a thechnician for you" style="rounded=0;whiteSpace=wrap;html=1;" vertex="1" parent="1">
          <mxGeometry x="210" y="-810" width="120" height="50" as="geometry" />
        </mxCell>
      </root>
    </mxGraphModel>
  </diagram>
  <diagram id="kFQSaq9FyVH5P-Bm1M0a" name="‫עמוד-3‬">
    <mxGraphModel dx="1050" dy="557" grid="1" gridSize="10" guides="1" tooltips="1" connect="1" arrows="1" fold="1" page="1" pageScale="1" pageWidth="827" pageHeight="1169" math="0" shadow="0">
      <root>
        <mxCell id="0" />
        <mxCell id="1" parent="0" />
        <mxCell id="Zb1iUdCdsBLAYVjm8gWP-2" style="edgeStyle=orthogonalEdgeStyle;rounded=0;orthogonalLoop=1;jettySize=auto;html=1;exitX=0.5;exitY=1;exitDx=0;exitDy=0;" edge="1" parent="1" source="Zb1iUdCdsBLAYVjm8gWP-1">
          <mxGeometry relative="1" as="geometry">
            <mxPoint x="400" y="110" as="targetPoint" />
          </mxGeometry>
        </mxCell>
        <mxCell id="Zb1iUdCdsBLAYVjm8gWP-1" value="&lt;font style=&quot;font-size: 22px;&quot;&gt;start&lt;/font&gt;" style="rounded=1;whiteSpace=wrap;html=1;" vertex="1" parent="1">
          <mxGeometry x="340" width="120" height="60" as="geometry" />
        </mxCell>
        <mxCell id="Zb1iUdCdsBLAYVjm8gWP-8" style="edgeStyle=orthogonalEdgeStyle;rounded=0;orthogonalLoop=1;jettySize=auto;html=1;exitX=0.5;exitY=1;exitDx=0;exitDy=0;exitPerimeter=0;entryX=0.5;entryY=0;entryDx=0;entryDy=0;" edge="1" parent="1" source="Zb1iUdCdsBLAYVjm8gWP-4" target="Zb1iUdCdsBLAYVjm8gWP-6">
          <mxGeometry relative="1" as="geometry" />
        </mxCell>
        <mxCell id="Zb1iUdCdsBLAYVjm8gWP-4" value="nam1&lt;br&gt;nam2" style="shape=card;whiteSpace=wrap;html=1;" vertex="1" parent="1">
          <mxGeometry x="350" y="110" width="100" height="40" as="geometry" />
        </mxCell>
        <mxCell id="Zb1iUdCdsBLAYVjm8gWP-10" style="edgeStyle=orthogonalEdgeStyle;rounded=0;orthogonalLoop=1;jettySize=auto;html=1;exitX=0.5;exitY=1;exitDx=0;exitDy=0;entryX=0.5;entryY=0;entryDx=0;entryDy=0;" edge="1" parent="1" source="Zb1iUdCdsBLAYVjm8gWP-6">
          <mxGeometry relative="1" as="geometry">
            <mxPoint x="400" y="250" as="targetPoint" />
          </mxGeometry>
        </mxCell>
        <mxCell id="Zb1iUdCdsBLAYVjm8gWP-6" value="answer=nam1*nam2" style="rounded=0;whiteSpace=wrap;html=1;" vertex="1" parent="1">
          <mxGeometry x="350" y="180" width="130" height="40" as="geometry" />
        </mxCell>
        <mxCell id="Zb1iUdCdsBLAYVjm8gWP-20" value="" style="edgeStyle=orthogonalEdgeStyle;rounded=0;orthogonalLoop=1;jettySize=auto;html=1;" edge="1" parent="1" target="Zb1iUdCdsBLAYVjm8gWP-19">
          <mxGeometry relative="1" as="geometry">
            <mxPoint x="400" y="300" as="sourcePoint" />
            <mxPoint x="400" y="375" as="targetPoint" />
          </mxGeometry>
        </mxCell>
        <mxCell id="Zb1iUdCdsBLAYVjm8gWP-21" value="" style="edgeStyle=orthogonalEdgeStyle;rounded=0;orthogonalLoop=1;jettySize=auto;html=1;" edge="1" parent="1" source="Zb1iUdCdsBLAYVjm8gWP-19">
          <mxGeometry relative="1" as="geometry">
            <mxPoint x="400" y="380" as="targetPoint" />
          </mxGeometry>
        </mxCell>
        <mxCell id="Zb1iUdCdsBLAYVjm8gWP-24" value="" style="edgeStyle=orthogonalEdgeStyle;rounded=0;orthogonalLoop=1;jettySize=auto;html=1;" edge="1" parent="1" source="Zb1iUdCdsBLAYVjm8gWP-19" target="Zb1iUdCdsBLAYVjm8gWP-22">
          <mxGeometry relative="1" as="geometry" />
        </mxCell>
        <mxCell id="Zb1iUdCdsBLAYVjm8gWP-19" value="answer&amp;gt;100" style="rhombus;whiteSpace=wrap;html=1;" vertex="1" parent="1">
          <mxGeometry x="347.5" y="252.5" width="105" height="87.5" as="geometry" />
        </mxCell>
        <mxCell id="Zb1iUdCdsBLAYVjm8gWP-22" value="buuu" style="shape=document;whiteSpace=wrap;html=1;boundedLbl=1;" vertex="1" parent="1">
          <mxGeometry x="570" y="264.38" width="100" height="63.75" as="geometry" />
        </mxCell>
        <mxCell id="Zb1iUdCdsBLAYVjm8gWP-25" value="yuyyy" style="shape=document;whiteSpace=wrap;html=1;boundedLbl=1;" vertex="1" parent="1">
          <mxGeometry x="340" y="390" width="120" height="60" as="geometry" />
        </mxCell>
        <mxCell id="C10yGynh29hL250f0cea-1" value="&lt;div&gt;Take two numbers from the user&lt;/div&gt;&lt;div&gt;Multiplay them with one and another&lt;/div&gt;&lt;div&gt;if the answer is more them a 100 say yayyy&lt;/div&gt;&lt;div&gt;If not say buuuuuu&lt;/div&gt;" style="text;html=1;align=center;verticalAlign=middle;resizable=0;points=[];autosize=1;strokeColor=none;fillColor=none;" vertex="1" parent="1">
          <mxGeometry y="130" width="250" height="70" as="geometry" />
        </mxCell>
      </root>
    </mxGraphModel>
  </diagram>
  <diagram id="CNtCyJb8T-Twq2toAtFT" name="‫עמוד-4‬">
    <mxGraphModel dx="1050" dy="557" grid="1" gridSize="10" guides="1" tooltips="1" connect="1" arrows="1" fold="1" page="1" pageScale="1" pageWidth="827" pageHeight="1169" math="0" shadow="0">
      <root>
        <mxCell id="0" />
        <mxCell id="1" parent="0" />
        <mxCell id="5D2yBeeZzyUsuLjR2scy-1" value="start" style="rounded=1;whiteSpace=wrap;html=1;" vertex="1" parent="1">
          <mxGeometry x="350" width="120" height="60" as="geometry" />
        </mxCell>
        <mxCell id="WbcCEre0fP9bWnRushuZ-4" style="edgeStyle=orthogonalEdgeStyle;rounded=0;orthogonalLoop=1;jettySize=auto;html=1;exitX=1;exitY=0.5;exitDx=0;exitDy=0;" edge="1" parent="1" source="5D2yBeeZzyUsuLjR2scy-2">
          <mxGeometry relative="1" as="geometry">
            <mxPoint x="590" y="585" as="targetPoint" />
          </mxGeometry>
        </mxCell>
        <mxCell id="5D2yBeeZzyUsuLjR2scy-2" value="stop" style="rounded=1;whiteSpace=wrap;html=1;" vertex="1" parent="1">
          <mxGeometry x="354" y="554.5" width="120" height="60" as="geometry" />
        </mxCell>
        <mxCell id="Z9fvBbOAYeS4MznJm9Sa-1" value="&lt;br&gt;nam 1&lt;br&gt;nam 2" style="shape=card;whiteSpace=wrap;html=1;" vertex="1" parent="1">
          <mxGeometry x="370" y="90" width="80" height="50" as="geometry" />
        </mxCell>
        <mxCell id="y_m-gDmNFaZ7WaYw6JPM-8" value="" style="edgeStyle=orthogonalEdgeStyle;rounded=0;orthogonalLoop=1;jettySize=auto;html=1;" edge="1" parent="1" source="i8aXZ-gPLV5W9LtiZgGI-1" target="vh93baXd2aWRLm0F9aId-1">
          <mxGeometry relative="1" as="geometry" />
        </mxCell>
        <mxCell id="i8aXZ-gPLV5W9LtiZgGI-1" value="nam1++&lt;br&gt;nam2--&lt;br&gt;answer=nam1*nam2" style="rounded=0;whiteSpace=wrap;html=1;" vertex="1" parent="1">
          <mxGeometry x="330" y="180" width="170" height="60" as="geometry" />
        </mxCell>
        <mxCell id="y_m-gDmNFaZ7WaYw6JPM-9" style="edgeStyle=orthogonalEdgeStyle;rounded=0;orthogonalLoop=1;jettySize=auto;html=1;exitX=1;exitY=0.5;exitDx=0;exitDy=0;entryX=0;entryY=0.5;entryDx=0;entryDy=0;" edge="1" parent="1" source="vh93baXd2aWRLm0F9aId-1" target="y_m-gDmNFaZ7WaYw6JPM-1">
          <mxGeometry relative="1" as="geometry" />
        </mxCell>
        <mxCell id="y_m-gDmNFaZ7WaYw6JPM-10" value="" style="edgeStyle=orthogonalEdgeStyle;rounded=0;orthogonalLoop=1;jettySize=auto;html=1;" edge="1" parent="1" source="vh93baXd2aWRLm0F9aId-1" target="y_m-gDmNFaZ7WaYw6JPM-2">
          <mxGeometry relative="1" as="geometry" />
        </mxCell>
        <mxCell id="vh93baXd2aWRLm0F9aId-1" value="answer= %2==0" style="rhombus;whiteSpace=wrap;html=1;" vertex="1" parent="1">
          <mxGeometry x="369" y="300" width="90" height="110" as="geometry" />
        </mxCell>
        <mxCell id="WbcCEre0fP9bWnRushuZ-2" style="edgeStyle=orthogonalEdgeStyle;rounded=0;orthogonalLoop=1;jettySize=auto;html=1;" edge="1" parent="1" source="y_m-gDmNFaZ7WaYw6JPM-1">
          <mxGeometry relative="1" as="geometry">
            <mxPoint x="590" y="590" as="targetPoint" />
          </mxGeometry>
        </mxCell>
        <mxCell id="y_m-gDmNFaZ7WaYw6JPM-1" value="ai zugy" style="shape=document;whiteSpace=wrap;html=1;boundedLbl=1;" vertex="1" parent="1">
          <mxGeometry x="530" y="330" width="120" height="50" as="geometry" />
        </mxCell>
        <mxCell id="y_m-gDmNFaZ7WaYw6JPM-13" value="" style="edgeStyle=orthogonalEdgeStyle;rounded=0;orthogonalLoop=1;jettySize=auto;html=1;" edge="1" parent="1" source="y_m-gDmNFaZ7WaYw6JPM-2" target="5D2yBeeZzyUsuLjR2scy-2">
          <mxGeometry relative="1" as="geometry" />
        </mxCell>
        <mxCell id="y_m-gDmNFaZ7WaYw6JPM-2" value="zugi" style="shape=document;whiteSpace=wrap;html=1;boundedLbl=1;" vertex="1" parent="1">
          <mxGeometry x="356" y="450" width="115" height="60" as="geometry" />
        </mxCell>
        <mxCell id="y_m-gDmNFaZ7WaYw6JPM-5" style="edgeStyle=orthogonalEdgeStyle;rounded=0;orthogonalLoop=1;jettySize=auto;html=1;exitX=0.5;exitY=1;exitDx=0;exitDy=0;entryX=0.5;entryY=0;entryDx=0;entryDy=0;entryPerimeter=0;" edge="1" parent="1" source="5D2yBeeZzyUsuLjR2scy-1" target="Z9fvBbOAYeS4MznJm9Sa-1">
          <mxGeometry relative="1" as="geometry" />
        </mxCell>
        <mxCell id="y_m-gDmNFaZ7WaYw6JPM-6" style="edgeStyle=orthogonalEdgeStyle;rounded=0;orthogonalLoop=1;jettySize=auto;html=1;exitX=0.5;exitY=1;exitDx=0;exitDy=0;exitPerimeter=0;entryX=0.447;entryY=-0.023;entryDx=0;entryDy=0;entryPerimeter=0;" edge="1" parent="1" source="Z9fvBbOAYeS4MznJm9Sa-1" target="i8aXZ-gPLV5W9LtiZgGI-1">
          <mxGeometry relative="1" as="geometry" />
        </mxCell>
        <mxCell id="BJgz-4ydbJ2eDUkEEb4O-1" value="&lt;div&gt;Write a flow that take 2 numbers&amp;nbsp;&lt;/div&gt;&lt;div&gt;Add one to the first one&lt;/div&gt;&lt;div&gt;And substract one from the secong&amp;nbsp;&lt;/div&gt;&lt;div&gt;then multyplay them&lt;/div&gt;&lt;div&gt;if the answer is even - write zugy!&lt;/div&gt;&lt;div&gt;If the answer is odd - write ai zugy&lt;/div&gt;" style="text;html=1;align=center;verticalAlign=middle;resizable=0;points=[];autosize=1;strokeColor=none;fillColor=none;" vertex="1" parent="1">
          <mxGeometry x="15" y="63" width="210" height="100" as="geometry" />
        </mxCell>
      </root>
    </mxGraphModel>
  </diagram>
  <diagram id="mOFMZ3AW21wK-GD5idjs" name="‫עמוד-5‬">
    <mxGraphModel dx="1050" dy="557" grid="1" gridSize="10" guides="1" tooltips="1" connect="1" arrows="1" fold="1" page="1" pageScale="1" pageWidth="827" pageHeight="1169" math="0" shadow="0">
      <root>
        <mxCell id="0" />
        <mxCell id="1" parent="0" />
      </root>
    </mxGraphModel>
  </diagram>
</mxfile>
